# xmcd CD database file
#
# Track frame offsets:
#	150
#	13587
#	27490
#	40244
#	56820
#	69125
#	85901
#	100432
#	111289
#	121952
#	135779
#	147503
#	163082
#	182254
#	201349
#	216405
#	227827
#	241064
#	254927
#	269253
#	283098
#
# Disc length: 3929 seconds
#
# Revision: 0
# Processed by: cddbd v1.5PL3 Copyright (c) Steve Scherf et al.
# Submitted via: CDex 1.50
#
DISCID=3a0f5715
DTITLE=30 let ceske country - disk 2
DYEAR=1900
DGENRE=Country
TTITLE0=Sundej z hodin zavazi
TTITLE1=Jak jdem tim zdejsim svetem
TTITLE2=Jen se priznej, ze ti schazim
TTITLE3=Cadillac
TTITLE4=V zadech tahnu stin
TTITLE5=Pani ma se ma
TTITLE6=Posledni kovboj
TTITLE7=Kvete mak a slunce pali
TTITLE8=Panenka
TTITLE9=Inzenyrska
TTITLE10=Slecna sen
TTITLE11=Chtel bych byt medvidkem
TTITLE12=Ten sen jsem mival
TTITLE13=Vsichni jsou uz v Mexiku
TTITLE14=Usta do podkovy
TTITLE15=Blues o touze letat
TTITLE16=Country boy
TTITLE17=Mym hrdinou byl vzdycky cowboy
TTITLE18=Asfaltovy blues
TTITLE19=Tom Dooley
TTITLE20=Dej boze muj
EXTD=
EXTT0=
EXTT1=
EXTT2=
EXTT3=
EXTT4=
EXTT5=
EXTT6=
EXTT7=
EXTT8=
EXTT9=
EXTT10=
EXTT11=
EXTT12=
EXTT13=
EXTT14=
EXTT15=
EXTT16=
EXTT17=
EXTT18=
EXTT19=
EXTT20=
PLAYORDER=
